<?xml version="1.0" standalone="no"?>
<!DOCTYPE svg PUBLIC "-//W3C//DTD SVG 20010904//EN"
 "http://www.w3.org/TR/2001/REC-SVG-20010904/DTD/svg10.dtd">
<svg version="1.0" xmlns="http://www.w3.org/2000/svg"
 width="700.000000pt" height="700.000000pt" viewBox="0 0 700.000000 700.000000"
 preserveAspectRatio="xMidYMid meet">
<metadata>
Created by potrace 1.14, written by Peter Selinger 2001-2017
</metadata>
<g transform="translate(0.000000,700.000000) scale(0.100000,-0.100000)"
fill="#000000" stroke="none">
<path d="M3265 6990 c-627 -46 -1205 -244 -1720 -591 -812 -547 -1363 -1418
-1505 -2380 -123 -838 51 -1666 502 -2390 273 -437 702 -856 1158 -1129 1006
-605 2261 -663 3310 -154 393 191 698 410 995 715 547 562 881 1268 971 2054
23 204 24 569 0 763 -50 419 -147 763 -316 1118 -520 1096 -1570 1846 -2770
1979 -173 19 -471 26 -625 15z m796 -1180 c110 -21 215 -92 274 -184 17 -28
89 -186 159 -352 l128 -301 507 -6 c537 -7 569 -10 663 -58 58 -30 150 -119
181 -177 52 -95 54 -121 62 -657 9 -647 -19 -1903 -45 -2070 -19 -117 -100
-241 -198 -304 -100 -64 -139 -71 -452 -82 -365 -13 -1343 -27 -1750 -25 -309
1 -317 2 -435 30 -218 51 -385 123 -567 245 -370 248 -639 629 -739 1050 -25
104 -49 276 -49 358 0 34 -4 65 -10 68 -6 4 -10 -15 -10 -50 0 -37 -4 -54 -11
-50 -7 5 -8 -13 -3 -57 l7 -63 -21 19 -21 19 5 -49 c2 -28 -2 -73 -10 -104
l-15 -55 4 60 c3 45 2 53 -4 30 -6 -21 -8 -4 -6 55 4 83 4 84 -5 25 -5 -33 -7
-82 -4 -110 6 -49 6 -50 -14 -32 -19 18 -20 17 -11 -30 5 -26 11 -59 14 -71 4
-16 2 -21 -6 -17 -7 5 -9 1 -6 -11 3 -11 11 -38 17 -62 6 -24 14 -51 17 -60 6
-15 5 -15 -14 1 -12 11 -27 47 -38 99 -11 44 -21 76 -23 70 -1 -5 4 -37 13
-71 8 -33 13 -73 10 -88 -3 -19 -3 -22 3 -10 6 13 14 -2 34 -63 14 -44 22 -78
17 -74 -14 8 -12 1 31 -97 l40 -93 -31 30 -31 29 42 -85 c23 -47 52 -98 63
-115 l21 -30 -26 23 c-14 12 -50 74 -81 136 -31 62 -64 119 -72 126 -13 11
-13 7 1 -26 9 -22 30 -66 46 -99 23 -44 26 -56 12 -45 -24 20 31 -78 113 -200
l64 -95 -48 48 c-27 26 -52 45 -55 42 -3 -4 -9 -1 -14 6 -5 8 -3 10 7 5 8 -4
4 1 -7 11 -24 20 -98 146 -139 235 -14 32 -30 60 -35 63 -12 7 33 -95 73 -165
23 -40 26 -51 12 -40 -53 42 137 -234 244 -355 20 -22 -11 5 -68 60 -57 55
-101 93 -97 85 4 -8 -1 -4 -11 10 -10 14 -40 48 -66 75 l-49 50 60 -91 c103
-155 232 -304 371 -427 l64 -56 -39 1 c-36 1 -48 10 -171 135 -73 73 -133 138
-133 143 0 6 61 -53 136 -130 75 -77 142 -140 148 -140 6 0 -56 67 -138 149
-83 83 -153 148 -157 145 -4 -2 -23 17 -42 43 -20 27 -52 64 -73 83 l-37 35
42 -62 c62 -93 132 -176 250 -296 l106 -108 -42 3 c-23 1 -41 4 -39 6 2 2 -24
30 -59 62 -35 32 -61 60 -59 62 2 2 -45 53 -103 114 -59 60 -102 102 -96 94
63 -94 269 -324 283 -315 3 2 7 -2 7 -8 0 -13 -40 -13 -77 -1 -8 3 -16 4 -17
2 -1 -2 -21 15 -45 37 l-43 40 40 -44 40 -44 -42 7 c-103 15 -219 92 -283 188
-61 92 -78 163 -85 368 -14 435 -25 879 -30 1290 -3 245 -8 455 -11 468 -2 12
-10 22 -18 22 -7 0 -18 10 -24 23 -10 21 -11 21 -17 -10 -4 -18 -12 -31 -19
-30 -7 1 -10 -11 -8 -33 1 -24 -1 -30 -7 -21 -6 10 -11 5 -16 -19 -5 -24 -10
-29 -16 -19 -12 19 -11 32 1 24 12 -8 13 15 1 33 -6 10 -10 7 -15 -13 -6 -22
-9 -25 -21 -15 -13 10 -16 7 -21 -19 -9 -45 -25 -27 -19 22 l5 42 -13 -34 -13
-33 -24 25 c-27 28 -40 26 -40 -4 0 -12 -5 -19 -12 -16 -8 3 -12 19 -10 46 3
46 -12 56 -22 15 l-7 -27 -29 28 c-25 24 -29 25 -33 8 -8 -30 -6 422 2 569 7
127 10 142 41 205 63 128 189 221 330 242 36 6 282 13 548 17 l483 7 -10 -24
c-5 -13 -88 -206 -185 -428 -96 -223 -174 -406 -173 -407 1 -2 34 45 74 104
124 187 290 355 465 473 35 23 65 44 68 46 2 2 -49 57 -114 122 -114 115 -118
120 -108 147 46 128 250 590 279 632 59 86 149 146 253 168 71 16 1052 19
1131 4z m-2722 -1873 c0 -21 -1 -21 -9 -2 -12 28 -12 37 0 30 6 -3 10 -16 9
-28z m-30 -47 c0 -9 -4 -8 -9 5 -5 11 -9 27 -9 35 0 9 4 8 9 -5 5 -11 9 -27 9
-35z m-192 -42 c-3 -8 -6 -5 -6 6 -1 11 2 17 5 13 3 -3 4 -12 1 -19z m626
-896 c5 -26 4 -30 -6 -20 -8 6 -11 22 -9 35 5 29 7 27 15 -15z m128 -909 c13
-16 12 -17 -3 -4 -10 7 -18 15 -18 17 0 8 8 3 21 -13z m40 -158 c79 -91 165
-173 257 -247 19 -16 31 -28 25 -28 -14 0 -181 149 -246 219 -75 82 -167 196
-167 207 0 5 11 -4 23 -21 12 -16 61 -75 108 -130z m0 108 c13 -16 12 -17 -3
-4 -10 7 -18 15 -18 17 0 8 8 3 21 -13z m49 -58 c13 -14 21 -25 18 -25 -2 0
-15 11 -28 25 -13 14 -21 25 -18 25 2 0 15 -11 28 -25z m-220 -90 c13 -14 21
-25 18 -25 -2 0 -15 11 -28 25 -13 14 -21 25 -18 25 2 0 15 -11 28 -25z m310
-10 c13 -14 21 -25 18 -25 -2 0 -15 11 -28 25 -13 14 -21 25 -18 25 2 0 15
-11 28 -25z m-250 -60 c19 -19 32 -35 29 -35 -3 0 -20 16 -39 35 -19 19 -32
35 -29 35 3 0 20 -16 39 -35z m360 -40 c13 -14 21 -25 18 -25 -2 0 -15 11 -28
25 -13 14 -21 25 -18 25 2 0 15 -11 28 -25z m70 -104 c17 -14 20 -20 10 -21
-9 0 -47 32 -85 72 l-70 71 60 -51 c33 -28 71 -60 85 -71z m-345 49 c21 -22
37 -40 34 -40 -3 0 -23 18 -44 40 -21 22 -37 40 -34 40 3 0 23 -18 44 -40z
m336 3 c13 -16 12 -17 -3 -4 -10 7 -18 15 -18 17 0 8 8 3 21 -13z m149 -66
c20 -14 21 -17 7 -17 -10 0 -39 21 -65 46 -47 46 -47 46 -7 17 22 -16 51 -37
65 -46z"/>
<path d="M3363 4550 c-420 -48 -796 -306 -992 -680 -125 -239 -169 -510 -126
-777 75 -465 415 -864 867 -1019 131 -44 223 -58 388 -58 207 0 338 28 524
113 171 77 374 245 494 406 101 136 189 334 227 510 25 111 30 323 11 437 -87
528 -483 941 -1004 1048 -114 23 -287 32 -389 20z"/>
<path d="M1801 3424 c0 -11 3 -14 6 -6 3 7 2 16 -1 19 -3 4 -6 -2 -5 -13z"/>
<path d="M1680 2645 c0 -5 5 -17 10 -25 5 -8 10 -10 10 -5 0 6 -5 17 -10 25
-5 8 -10 11 -10 5z"/>
<path d="M1680 1776 c0 -2 8 -10 18 -17 15 -13 16 -12 3 4 -13 16 -21 21 -21
13z"/>
</g>
</svg>
